<?xml version="1.0" encoding="UTF-8" standalone="no"?>
<!-- Created with Inkscape (http://www.inkscape.org/) -->

<svg
   xmlns:dc="http://purl.org/dc/elements/1.1/"
   xmlns:cc="http://creativecommons.org/ns#"
   xmlns:rdf="http://www.w3.org/1999/02/22-rdf-syntax-ns#"
   xmlns:svg="http://www.w3.org/2000/svg"
   xmlns="http://www.w3.org/2000/svg"
   xmlns:sodipodi="http://sodipodi.sourceforge.net/DTD/sodipodi-0.dtd"
   xmlns:inkscape="http://www.inkscape.org/namespaces/inkscape"
   width="210mm"
   height="297mm"
   viewBox="0 0 744.09448819 1052.3622047"
   id="svg4238"
   version="1.1"
   inkscape:version="0.91 r13725"
   sodipodi:docname="dessin.svg">
  <defs
     id="defs4240" />
  <sodipodi:namedview
     id="base"
     pagecolor="#ffffff"
     bordercolor="#666666"
     borderopacity="1.0"
     inkscape:pageopacity="0.0"
     inkscape:pageshadow="2"
     inkscape:zoom="2.8"
     inkscape:cx="368.54216"
     inkscape:cy="662.59345"
     inkscape:document-units="px"
     inkscape:current-layer="layer1"
     showgrid="false"
     inkscape:window-width="1920"
     inkscape:window-height="1017"
     inkscape:window-x="-8"
     inkscape:window-y="-8"
     inkscape:window-maximized="1" />
  <metadata
     id="metadata4243">
    <rdf:RDF>
      <cc:Work
         rdf:about="">
        <dc:format>image/svg+xml</dc:format>
        <dc:type
           rdf:resource="http://purl.org/dc/dcmitype/StillImage" />
        <dc:title></dc:title>
      </cc:Work>
    </rdf:RDF>
  </metadata>
  <g
     inkscape:label="Calque 1"
     inkscape:groupmode="layer"
     id="layer1">
    <path
       style="fill:#f0afb7;fill-rule:evenodd;stroke:#ffffff;stroke-width:1px;stroke-linecap:butt;stroke-linejoin:miter;stroke-opacity:1;fill-opacity:1"
       d="m 259.10413,242.21986 c 0,0 7.01359,-4.91289 10.59093,-6.6176 4.03694,-1.92374 12.1375,-3.989 12.1375,-3.989 0,0 11.9436,17.09432 17.69265,25.79149 4.83537,7.31497 14.00089,21.68568 14.00089,21.68568 l 45.07806,0 c 0,0 9.18817,-15.37451 13.76315,-22.7757 6.06378,-9.80969 19.4456,-28.61581 19.4456,-28.61581 0,0 8.49096,3.13871 12.17406,5.66398 3.61893,2.48128 10.32088,8.17069 10.32088,8.17069 0,0 -9.33897,45.87013 -6.61588,67.97719 1.51755,12.32003 5.06968,19.45063 10.19688,28.16688 4.84367,8.23425 20.90251,19.60768 20.90251,19.60768 0,0 -0.21429,4.61007 -0.38516,6.15283 -0.45606,4.11765 -0.58477,8.2042 -0.0242,12.42846 0.60154,4.53276 1.31444,11.09612 3.05463,13.33043 7.84928,10.07808 12.56547,21.35692 17.73489,32.59357 5.30088,11.52239 10.19161,26.22388 13.54775,35.55619 6.16485,17.14243 10.89401,38.2794 14.05582,52.81333 1.65946,7.62808 1.63364,23.36245 1.63364,23.36245 0,0 -95.3038,27.1653 -145.46785,28.99132 -23.59765,0.85898 -59.49325,-0.36572 -88.94626,-4.02168 -22.66167,-2.81296 -67.11643,-13.73169 -67.11643,-13.73169 0,0 5.95404,-34.9222 11.08177,-51.82825 4.63691,-15.28778 11.54062,-37.91598 19.41328,-57.02984 9.66064,-23.45485 14.61716,-27.5692 20.01258,-42.15972 1.54129,-4.16802 2.80386,-8.47562 3.49423,-12.86554 0.83228,-5.29238 1.05145,-14.91365 1.05145,-14.91365 l -0.3788,-7.82868 c 0,0 14.85442,-8.8045 18.46728,-16.17782 14.62902,-29.85571 -0.91585,-99.73719 -0.91585,-99.73719 z"
       id="path4797"
       inkscape:connector-curvature="0"
       sodipodi:nodetypes="cscsccscscsscsssasscsacssssccsc" />
    <path
       style="fill:#ffffff;fill-rule:evenodd;stroke:#ffffff;stroke-width:1px;stroke-linecap:butt;stroke-linejoin:miter;stroke-opacity:1;fill-opacity:1"
       d="m 253.04321,445.7656 c 0,0 7.02871,20.8249 11.68574,30.75306 4.1968,8.94704 14.57823,25.81548 14.57823,25.81548 0,0 11.50852,-13.39572 14.32816,-18.60818 5.25628,-9.71687 12.61945,-34.90189 12.61945,-34.90189 0,0 -16.21226,1.39657 -27.40286,0.78291 -8.68463,-0.47624 -25.80872,-3.84138 -25.80872,-3.84138 z"
       id="path4803"
       inkscape:connector-curvature="0"
       sodipodi:nodetypes="cscscsc" />
    <path
       style="fill:#ffffff;fill-rule:evenodd;stroke:#ffffff;stroke-width:1px;stroke-linecap:butt;stroke-linejoin:miter;stroke-opacity:1;fill-opacity:1"
       d="m 373.25137,440.71484 c 0,0 17.08,-0.0347 25.5861,-0.69723 8.68912,-0.6768 25.93168,-3.34338 25.93168,-3.34338 0,0 -1.07075,27.86153 -4.0487,38.14523 -2.39111,8.25719 -12.53216,23.14757 -12.53216,23.14757 0,0 -13.85962,-14.42868 -19.12084,-22.77795 -6.73759,-10.69216 -15.81608,-34.47424 -15.81608,-34.47424 z"
       id="path4805"
       inkscape:connector-curvature="0"
       sodipodi:nodetypes="cscscsc" />
    <path
       style="fill:none;fill-rule:evenodd;stroke:#ffffff;stroke-width:1px;stroke-linecap:butt;stroke-linejoin:miter;stroke-opacity:1"
       d="m 308.09653,433.13869 c 0,0 4.34776,-14.5708 7.38766,-21.81498 2.71179,-6.4623 7.38632,-17.73746 10.54254,-17.58097 3.36514,0.16685 8.83884,21.71828 8.83884,21.71828 0,0 2.49536,-22.66027 5.05076,-22.72843 3.11415,-0.0831 9.59645,26.26397 9.59645,26.26397 0,0 -1.46727,-25.24722 1.01015,-25.25382 2.6208,-0.007 18.68783,27.27412 18.68783,27.27412"
       id="path4809"
       inkscape:connector-curvature="0"
       sodipodi:nodetypes="csscscsc" />
    <path
       style="fill:none;fill-rule:evenodd;stroke:#000000;stroke-width:1px;stroke-linecap:butt;stroke-linejoin:miter;stroke-opacity:1"
       d="m 280.82241,385.66152 c 14.10004,1.85195 89.09335,2.28337 114.30507,-2.17814"
       id="path4811"
       inkscape:connector-curvature="0"
       sodipodi:nodetypes="cc" />
    <path
       style="fill:none;fill-rule:evenodd;stroke:#000000;stroke-width:1px;stroke-linecap:butt;stroke-linejoin:miter;stroke-opacity:1"
       d="m 337.26468,341.59362 c 0,0 28.88713,-26.38081 41.20183,-41.48764 13.16227,-16.14658 34.55698,-52.0714 34.55698,-52.0714"
       id="path4813"
       inkscape:connector-curvature="0"
       sodipodi:nodetypes="csc" />
    <path
       style="fill:none;fill-rule:evenodd;stroke:#000000;stroke-width:1px;stroke-linecap:butt;stroke-linejoin:miter;stroke-opacity:1"
       d="m 261.75578,254.7205 c 0,0 26.56595,37.59145 41.82799,54.75518 10.42559,11.72465 34.05972,32.2442 34.05972,32.2442"
       id="path4815"
       inkscape:connector-curvature="0"
       sodipodi:nodetypes="csc" />
    <path
       style="fill:#ffffff;fill-rule:evenodd;stroke:#ffffff;stroke-width:1px;stroke-linecap:butt;stroke-linejoin:miter;stroke-opacity:1;fill-opacity:0"
       d="m 298.73729,562.02505 c 0,0 48.63678,-6.78017 72.67825,-13.20485 7.56523,-2.02168 18.73441,-5.50582 26.72193,-8.4641 8.91665,-3.30239 25.28013,-9.04357 26.21588,-7.56945 0.85316,1.34402 -8.46847,6.40001 -13.0152,8.93037 -4.74276,2.63945 -7.13679,3.61147 -12.17471,5.59692 -1.55366,0.6123 -3.93857,1.63187 -4.5131,4.259 -0.37207,1.70138 11.72313,-0.17506 11.72313,-0.17506 l 81.59412,-18.12782"
       id="path4817"
       inkscape:connector-curvature="0"
       sodipodi:nodetypes="csssssscc" />
    <path
       style="fill:none;fill-rule:evenodd;stroke:#ffffff;stroke-width:1px;stroke-linecap:butt;stroke-linejoin:miter;stroke-opacity:1"
       d="m 424.4219,532.82813 c 0,0 1.26528,-3.93376 -0.82611,-15.20877 -2.09932,-11.31785 -5.39264,-16.67418 -5.39264,-16.67418"
       id="path4819"
       inkscape:connector-curvature="0"
       sodipodi:nodetypes="csc" />
    <path
       style="fill:none;fill-rule:evenodd;stroke:#000000;stroke-width:1px;stroke-linecap:butt;stroke-linejoin:miter;stroke-opacity:1"
       d="m 281.70629,231.36072 c 0,0 17.6069,37.74507 27.02643,56.31355 9.15786,18.05265 28.65823,53.54054 28.65823,53.54054 0,0 17.5841,-31.54751 26.20686,-49.45911 9.5476,-19.83271 28.08884,-63.80424 28.08884,-63.80424"
       id="path4821"
       inkscape:connector-curvature="0"
       sodipodi:nodetypes="cscsc" />
    <path
       style="fill:none;fill-rule:evenodd;stroke:#000000;stroke-width:1px;stroke-linecap:butt;stroke-linejoin:miter;stroke-opacity:1"
       d="m 311.63206,292.85376 51.39151,-0.12627"
       id="path4823"
       inkscape:connector-curvature="0" />
    <path
       style="fill:none;fill-rule:evenodd;stroke:#000000;stroke-width:1px;stroke-linecap:butt;stroke-linejoin:miter;stroke-opacity:1"
       d="m 318.32432,305.98574 37.88072,-0.12627"
       id="path4825"
       inkscape:connector-curvature="0" />
    <path
       style="fill:none;fill-rule:evenodd;stroke:#000000;stroke-width:1px;stroke-linecap:butt;stroke-linejoin:miter;stroke-opacity:1"
       d="m 324.25897,317.09742 26.26396,-0.12627"
       id="path4827"
       inkscape:connector-curvature="0" />
    <path
       style="fill:none;fill-rule:evenodd;stroke:#000000;stroke-width:1px;stroke-linecap:butt;stroke-linejoin:miter;stroke-opacity:1"
       d="m 329.81481,327.45148 14.64721,0.12627"
       id="path4829"
       inkscape:connector-curvature="0" />
    <path
       style="fill:none;fill-rule:evenodd;stroke:#000000;stroke-width:1px;stroke-linecap:butt;stroke-linejoin:miter;stroke-opacity:1"
       d="m 305.31861,280.47939 63.38707,0.12627"
       id="path4831"
       inkscape:connector-curvature="0" />
    <path
       style="fill:none;fill-rule:evenodd;stroke:#000000;stroke-width:1px;stroke-linecap:butt;stroke-linejoin:miter;stroke-opacity:1"
       d="m 241.93153,365.58474 c 0,0 12.49581,-0.88666 18.81097,-0.79742 5.96274,0.0843 13.88037,0.56963 17.17572,1.80758 2.70682,1.01685 2.94578,8.85645 2.60832,17.59604 -0.3105,8.04111 -3.77958,13.966 -5.63878,14.8551 -2.17277,1.03906 -12.7854,0.13757 -19.15117,-0.35526 -7.24487,-0.56089 -18.47701,-4.06415 -18.47701,-4.06415"
       id="path4833"
       inkscape:connector-curvature="0"
       sodipodi:nodetypes="csssssc" />
    <path
       style="fill:none;fill-rule:evenodd;stroke:#ffffff;stroke-width:1px;stroke-linecap:butt;stroke-linejoin:miter;stroke-opacity:1"
       d="m 267.32143,377.76399 c -1.19798,-0.071 -2.65316,0.29305 -3.41209,1.1487 -0.75893,0.85566 -1.60497,2.84049 -1.54326,4.29773 0.0548,1.29378 0.69511,2.36784 1.54088,3.19344 0.94092,0.91847 2.18465,1.6082 3.59304,1.62798 1.08531,0.0153 2.55806,-0.48391 3.27906,-1.14997 0.8415,-0.77739 1.44146,-1.97527 1.54237,-3.13574 0.12599,-1.44892 -0.30809,-3.13479 -1.22106,-4.1888 -0.91739,-1.05909 -2.38709,-1.71088 -3.77894,-1.79334 z"
       id="path4835"
       inkscape:connector-curvature="0"
       sodipodi:nodetypes="azsassasa" />
    <path
       style="fill:none;fill-rule:evenodd;stroke:#000000;stroke-width:0.9284085px;stroke-linecap:butt;stroke-linejoin:miter;stroke-opacity:1"
       d="m 242.27053,366.83776 c 0,0 11.819,-0.80802 17.79211,-0.72669 5.63979,0.0768 13.12857,0.5191 16.24542,1.64724 2.56022,0.92667 2.78623,8.0709 2.46705,16.0353 -0.29368,7.32788 -3.57486,12.72724 -5.33336,13.53748 -2.05508,0.94689 -12.09291,0.12537 -18.11388,-0.32375 -6.85247,-0.51114 -17.47623,-3.70366 -17.47623,-3.70366"
       id="path4833-8"
       inkscape:connector-curvature="0"
       sodipodi:nodetypes="csssssc" />
    <path
       style="fill:none;fill-rule:evenodd;stroke:#000000;stroke-width:1px;stroke-linecap:butt;stroke-linejoin:miter;stroke-opacity:1"
       d="m 438.40621,362.77526 c 0,0 -13.67822,-0.85672 -20.52296,-0.75077 -7.46181,0.11551 -19.73997,-0.28157 -22.28226,2.266 -2.30349,2.30826 -0.22309,27.55072 2.27285,29.54696 2.24153,1.79277 10.94361,2.79532 22.50232,1.02049 9.96979,-1.53085 21.75499,-4.42975 21.75499,-4.42975"
       id="path4852"
       inkscape:connector-curvature="0"
       sodipodi:nodetypes="cssssc" />
    <path
       style="fill:none;fill-rule:evenodd;stroke:#000000;stroke-width:0.91435969px;stroke-linecap:butt;stroke-linejoin:miter;stroke-opacity:1"
       d="m 438.03183,364.28931 c 0,0 -12.89533,-0.75974 -19.34829,-0.66579 -7.03475,0.10243 -18.61016,-0.24969 -21.00694,2.00951 -2.17164,2.04701 -0.21033,24.43228 2.14276,26.20258 2.11323,1.58984 10.31725,2.47892 21.2144,0.90497 9.39915,-1.35757 19.75231,-3.73535 19.75231,-3.73535"
       id="path4852-3"
       inkscape:connector-curvature="0"
       sodipodi:nodetypes="cssssc" />
    <path
       style="fill:none;fill-rule:evenodd;stroke:#ffffff;stroke-width:1px;stroke-linecap:butt;stroke-linejoin:miter;stroke-opacity:1"
       d="m 406.90207,373.03462 c 2.18537,0.14208 3.4284,2.22988 3.47241,4.41942 0.0375,1.86693 -1.68373,3.98995 -3.53554,4.23001 -2.9084,-0.1696 -4.23197,-2.55203 -3.87114,-4.71737 0.34201,-2.0524 2.24861,-3.89695 3.93424,-3.93206 z"
       id="path4869"
       inkscape:connector-curvature="0"
       sodipodi:nodetypes="cscscc" />
  </g>
</svg>
